<svg id="visual" viewBox="0 0 1550 200" width="1550" height="200" xmlns="http://www.w3.org/2000/svg" xmlns:xlink="http://www.w3.org/1999/xlink" version="1.1"><path d="M0 84L13.7 91C27.3 98 54.7 112 81.8 114.5C109 117 136 108 163.2 106.7C190.3 105.3 217.7 111.7 244.8 109C272 106.3 299 94.7 326.2 93C353.3 91.3 380.7 99.7 407.8 104.7C435 109.7 462 111.3 489.2 111C516.3 110.7 543.7 108.3 571 110.2C598.3 112 625.7 118 652.8 118.5C680 119 707 114 734.2 113.7C761.3 113.3 788.7 117.7 815.8 119.3C843 121 870 120 897.2 116.2C924.3 112.3 951.7 105.7 979 104.8C1006.3 104 1033.7 109 1060.8 107C1088 105 1115 96 1142.2 97.7C1169.3 99.3 1196.7 111.7 1223.8 116.5C1251 121.3 1278 118.7 1305.2 117.7C1332.3 116.7 1359.7 117.3 1386.8 117.3C1414 117.3 1441 116.7 1468.2 116.3C1495.3 116 1522.7 116 1536.3 116L1550 116L1550 201L1536.3 201C1522.7 201 1495.3 201 1468.2 201C1441 201 1414 201 1386.8 201C1359.7 201 1332.3 201 1305.2 201C1278 201 1251 201 1223.8 201C1196.7 201 1169.3 201 1142.2 201C1115 201 1088 201 1060.8 201C1033.7 201 1006.3 201 979 201C951.7 201 924.3 201 897.2 201C870 201 843 201 815.8 201C788.7 201 761.3 201 734.2 201C707 201 680 201 652.8 201C625.7 201 598.3 201 571 201C543.7 201 516.3 201 489.2 201C462 201 435 201 407.8 201C380.7 201 353.3 201 326.2 201C299 201 272 201 244.8 201C217.7 201 190.3 201 163.2 201C136 201 109 201 81.8 201C54.7 201 27.3 201 13.7 201L0 201Z" fill="#cfd8dc"></path><path d="M0 129L13.7 124.7C27.3 120.3 54.7 111.7 81.8 112.5C109 113.3 136 123.7 163.2 128.8C190.3 134 217.7 134 244.8 131.3C272 128.7 299 123.3 326.2 120.8C353.3 118.3 380.7 118.7 407.8 120.7C435 122.7 462 126.3 489.2 125.3C516.3 124.3 543.7 118.7 571 119C598.3 119.3 625.7 125.7 652.8 123.7C680 121.7 707 111.3 734.2 110.7C761.3 110 788.7 119 815.8 123.2C843 127.3 870 126.7 897.2 126.5C924.3 126.3 951.7 126.7 979 124.3C1006.3 122 1033.7 117 1060.8 119.3C1088 121.7 1115 131.3 1142.2 129.5C1169.3 127.7 1196.7 114.3 1223.8 111C1251 107.7 1278 114.3 1305.2 118.5C1332.3 122.7 1359.7 124.3 1386.8 126C1414 127.7 1441 129.3 1468.2 130C1495.3 130.7 1522.7 130.3 1536.3 130.2L1550 130L1550 201L1536.3 201C1522.7 201 1495.3 201 1468.2 201C1441 201 1414 201 1386.8 201C1359.7 201 1332.3 201 1305.2 201C1278 201 1251 201 1223.8 201C1196.7 201 1169.3 201 1142.2 201C1115 201 1088 201 1060.8 201C1033.7 201 1006.3 201 979 201C951.7 201 924.3 201 897.2 201C870 201 843 201 815.8 201C788.7 201 761.3 201 734.2 201C707 201 680 201 652.8 201C625.7 201 598.3 201 571 201C543.7 201 516.3 201 489.2 201C462 201 435 201 407.8 201C380.7 201 353.3 201 326.2 201C299 201 272 201 244.8 201C217.7 201 190.3 201 163.2 201C136 201 109 201 81.8 201C54.7 201 27.3 201 13.7 201L0 201Z" fill="#9bacb5"></path><path d="M0 131L13.7 133.2C27.3 135.3 54.7 139.7 81.8 142.7C109 145.7 136 147.3 163.2 143.2C190.3 139 217.7 129 244.8 124.3C272 119.7 299 120.3 326.2 126.8C353.3 133.3 380.7 145.7 407.8 147C435 148.3 462 138.7 489.2 134.7C516.3 130.7 543.7 132.3 571 131.8C598.3 131.3 625.7 128.7 652.8 128.3C680 128 707 130 734.2 132.3C761.3 134.7 788.7 137.3 815.8 138C843 138.7 870 137.3 897.2 138.8C924.3 140.3 951.7 144.7 979 146C1006.3 147.3 1033.7 145.7 1060.8 141.3C1088 137 1115 130 1142.2 127C1169.3 124 1196.7 125 1223.8 130.7C1251 136.3 1278 146.7 1305.2 145.5C1332.3 144.3 1359.7 131.7 1386.8 126.7C1414 121.7 1441 124.3 1468.2 129.3C1495.3 134.3 1522.7 141.7 1536.3 145.3L1550 149L1550 201L1536.3 201C1522.7 201 1495.3 201 1468.2 201C1441 201 1414 201 1386.8 201C1359.7 201 1332.3 201 1305.2 201C1278 201 1251 201 1223.8 201C1196.7 201 1169.3 201 1142.2 201C1115 201 1088 201 1060.8 201C1033.7 201 1006.3 201 979 201C951.7 201 924.3 201 897.2 201C870 201 843 201 815.8 201C788.7 201 761.3 201 734.2 201C707 201 680 201 652.8 201C625.7 201 598.3 201 571 201C543.7 201 516.3 201 489.2 201C462 201 435 201 407.8 201C380.7 201 353.3 201 326.2 201C299 201 272 201 244.8 201C217.7 201 190.3 201 163.2 201C136 201 109 201 81.8 201C54.7 201 27.3 201 13.7 201L0 201Z" fill="#6a8190"></path><path d="M0 150L13.7 150.7C27.3 151.3 54.7 152.7 81.8 153.5C109 154.3 136 154.7 163.2 152.5C190.3 150.3 217.7 145.7 244.8 146.7C272 147.7 299 154.3 326.2 159.3C353.3 164.3 380.7 167.7 407.8 168C435 168.3 462 165.7 489.2 165.3C516.3 165 543.7 167 571 168.3C598.3 169.7 625.7 170.3 652.8 170.5C680 170.7 707 170.3 734.2 166.3C761.3 162.3 788.7 154.7 815.8 152.8C843 151 870 155 897.2 156.3C924.3 157.7 951.7 156.3 979 155.8C1006.3 155.3 1033.7 155.7 1060.8 157.2C1088 158.7 1115 161.3 1142.2 160.7C1169.3 160 1196.7 156 1223.8 154.7C1251 153.3 1278 154.7 1305.2 157.2C1332.3 159.7 1359.7 163.3 1386.8 163C1414 162.7 1441 158.3 1468.2 158.8C1495.3 159.3 1522.7 164.7 1536.3 167.3L1550 170L1550 201L1536.3 201C1522.7 201 1495.3 201 1468.2 201C1441 201 1414 201 1386.8 201C1359.7 201 1332.3 201 1305.2 201C1278 201 1251 201 1223.8 201C1196.7 201 1169.3 201 1142.2 201C1115 201 1088 201 1060.8 201C1033.7 201 1006.3 201 979 201C951.7 201 924.3 201 897.2 201C870 201 843 201 815.8 201C788.7 201 761.3 201 734.2 201C707 201 680 201 652.8 201C625.7 201 598.3 201 571 201C543.7 201 516.3 201 489.2 201C462 201 435 201 407.8 201C380.7 201 353.3 201 326.2 201C299 201 272 201 244.8 201C217.7 201 190.3 201 163.2 201C136 201 109 201 81.8 201C54.7 201 27.3 201 13.7 201L0 201Z" fill="#3b596d"></path><path d="M0 164L13.7 163.7C27.3 163.3 54.7 162.7 81.8 164.5C109 166.3 136 170.7 163.2 173.8C190.3 177 217.7 179 244.8 177.2C272 175.3 299 169.7 326.2 169.3C353.3 169 380.7 174 407.8 175.2C435 176.3 462 173.7 489.2 173.3C516.3 173 543.7 175 571 177.8C598.3 180.7 625.7 184.3 652.8 186C680 187.7 707 187.3 734.2 185.2C761.3 183 788.7 179 815.8 175.3C843 171.7 870 168.3 897.2 167.3C924.3 166.3 951.7 167.7 979 167.2C1006.3 166.7 1033.7 164.3 1060.8 165.7C1088 167 1115 172 1142.2 175.8C1169.3 179.7 1196.7 182.3 1223.8 184.3C1251 186.3 1278 187.7 1305.2 187.8C1332.3 188 1359.7 187 1386.8 185.8C1414 184.7 1441 183.3 1468.2 179.7C1495.3 176 1522.7 170 1536.3 167L1550 164L1550 201L1536.3 201C1522.7 201 1495.3 201 1468.2 201C1441 201 1414 201 1386.8 201C1359.7 201 1332.3 201 1305.2 201C1278 201 1251 201 1223.8 201C1196.7 201 1169.3 201 1142.2 201C1115 201 1088 201 1060.8 201C1033.7 201 1006.3 201 979 201C951.7 201 924.3 201 897.2 201C870 201 843 201 815.8 201C788.7 201 761.3 201 734.2 201C707 201 680 201 652.8 201C625.7 201 598.3 201 571 201C543.7 201 516.3 201 489.2 201C462 201 435 201 407.8 201C380.7 201 353.3 201 326.2 201C299 201 272 201 244.8 201C217.7 201 190.3 201 163.2 201C136 201 109 201 81.8 201C54.7 201 27.3 201 13.7 201L0 201Z" fill="#06334b"></path></svg>